<svg width="52" height="52" viewBox="0 0 52 52" fill="none" xmlns="http://www.w3.org/2000/svg">
<path fill-rule="evenodd" clip-rule="evenodd" d="M11.917 39.0003C11.917 38.713 12.0311 38.4375 12.2343 38.2343C12.4375 38.0311 12.713 37.917 13.0003 37.917H39.0003C39.2876 37.917 39.5632 38.0311 39.7664 38.2343C39.9695 38.4375 40.0837 38.713 40.0837 39.0003C40.0837 39.2876 39.9695 39.5632 39.7664 39.7664C39.5632 39.9695 39.2876 40.0837 39.0003 40.0837H13.0003C12.713 40.0837 12.4375 39.9695 12.2343 39.7664C12.0311 39.5632 11.917 39.2876 11.917 39.0003Z" fill="#4A4A68"/>
<path d="M19.4997 24.917H15.1663C14.568 24.917 14.083 25.402 14.083 26.0003V39.0003C14.083 39.5986 14.568 40.0837 15.1663 40.0837H19.4997C20.098 40.0837 20.583 39.5986 20.583 39.0003V26.0003C20.583 25.402 20.098 24.917 19.4997 24.917Z" fill="#4A4A68"/>
<path d="M28.1667 11.917H23.8333C23.235 11.917 22.75 12.402 22.75 13.0003V39.0003C22.75 39.5986 23.235 40.0837 23.8333 40.0837H28.1667C28.765 40.0837 29.25 39.5986 29.25 39.0003V13.0003C29.25 12.402 28.765 11.917 28.1667 11.917Z" fill="#4A4A68"/>
<path d="M36.8337 18.417H32.5003C31.902 18.417 31.417 18.902 31.417 19.5003V39.0003C31.417 39.5986 31.902 40.0837 32.5003 40.0837H36.8337C37.432 40.0837 37.917 39.5986 37.917 39.0003V19.5003C37.917 18.902 37.432 18.417 36.8337 18.417Z" fill="#4A4A68"/>
</svg>
