<svg width="10" height="16" viewBox="0 0 10 16" fill="none" xmlns="http://www.w3.org/2000/svg">
<path d="M6.83366 0.662109C5.81147 0.662109 4.83115 1.06817 4.10835 1.79097C3.38556 2.51376 2.97949 3.49409 2.97949 4.51628V6.66211H0.916992C0.813659 6.66211 0.729492 6.74544 0.729492 6.84961V9.68294C0.729492 9.78628 0.812825 9.87044 0.916992 9.87044H2.97949V15.6829C2.97949 15.7863 3.06283 15.8704 3.16699 15.8704H6.00033C6.10366 15.8704 6.18783 15.7871 6.18783 15.6829V9.87044H8.26866C8.35449 9.87044 8.42949 9.81211 8.45033 9.72878L9.15866 6.89544C9.16563 6.86779 9.1662 6.83892 9.16033 6.81102C9.15446 6.78312 9.14231 6.75692 9.12479 6.73442C9.10728 6.71192 9.08486 6.69372 9.05925 6.68119C9.03364 6.66866 9.0055 6.66213 8.97699 6.66211H6.18783V4.51628C6.18783 4.43146 6.20453 4.34748 6.23699 4.26913C6.26944 4.19077 6.31701 4.11957 6.37699 4.0596C6.43696 3.99963 6.50815 3.95206 6.58651 3.9196C6.66487 3.88715 6.74885 3.87044 6.83366 3.87044H9.00032C9.10366 3.87044 9.18783 3.78711 9.18783 3.68294V0.849609C9.18783 0.746276 9.10449 0.662109 9.00032 0.662109H6.83366Z" fill="#222222"/>
</svg>
