<svg width="42" height="42" viewBox="0 0 42 42" fill="none" xmlns="http://www.w3.org/2000/svg">
<path fill-rule="evenodd" clip-rule="evenodd" d="M19.3602 4.32097C19.7908 3.97666 20.3189 3.77665 20.8695 3.74932C21.4202 3.72199 21.9654 3.86873 22.428 4.16872L22.6398 4.32097L30.1858 10.3585C30.5539 10.6527 30.8589 11.0183 31.0823 11.4333C31.3057 11.8483 31.443 12.3041 31.486 12.7735L31.5 13.0902V33.2502H33.25V18.3752C33.2499 18.1704 33.3217 17.9721 33.4528 17.8148C33.5839 17.6574 33.7661 17.5511 33.9675 17.5142L34.125 17.5002H35C35.883 17.4999 36.7335 17.8334 37.381 18.4338C38.0284 19.0343 38.425 19.8572 38.4913 20.7377L38.5 21.0002V34.8252C38.4998 35.2993 38.3247 35.7566 38.0083 36.1095C37.6918 36.4625 37.2562 36.6863 36.785 36.738L36.575 36.7502H5.425C4.95065 36.7505 4.49291 36.5756 4.13959 36.2591C3.78627 35.9426 3.56225 35.5067 3.5105 35.0352L3.5 34.8252V21.0002C3.49972 20.1172 3.83321 19.2667 4.43362 18.6193C5.03403 17.9718 5.85698 17.5752 6.7375 17.509L7 17.5002H7.875C8.07979 17.5002 8.27813 17.5719 8.43545 17.703C8.59278 17.8341 8.69914 18.0163 8.736 18.2177L8.75 18.3752V33.2502H10.5V13.0902C10.5 12.6189 10.5951 12.1525 10.7798 11.7188C10.9644 11.2852 11.2347 10.8933 11.5745 10.5667L11.8142 10.3567L19.3602 4.32097ZM21 15.7485C20.0717 15.7485 19.1815 16.1172 18.5251 16.7736C17.8687 17.43 17.5 18.3202 17.5 19.2485C17.5 20.1767 17.8687 21.067 18.5251 21.7233C19.1815 22.3797 20.0717 22.7485 21 22.7485C21.9283 22.7485 22.8185 22.3797 23.4749 21.7233C24.1313 21.067 24.5 20.1767 24.5 19.2485C24.5 18.3202 24.1313 17.43 23.4749 16.7736C22.8185 16.1172 21.9283 15.7485 21 15.7485Z" fill="#002145"/>
</svg>
