<svg width="18" height="14" viewBox="0 0 18 14" fill="none" xmlns="http://www.w3.org/2000/svg">
<path d="M17.3337 3.2793V11.1668C17.3337 11.8045 17.0901 12.4181 16.6526 12.882C16.2151 13.346 15.6169 13.6252 14.9803 13.6626L14.8337 13.6668H3.16699C2.52932 13.6668 1.91573 13.4232 1.45177 12.9857C0.98782 12.5483 0.708569 11.95 0.671159 11.3135L0.666992 11.1668V3.2793L8.53783 8.5268L8.63449 8.5818C8.74841 8.63746 8.87353 8.66639 9.00033 8.66639C9.12712 8.66639 9.25224 8.63746 9.36616 8.5818L9.46283 8.5268L17.3337 3.2793Z" fill="#92949F"/>
<path d="M14.8339 0.333008C15.7339 0.333008 16.5231 0.808008 16.9631 1.52217L9.00059 6.83051L1.03809 1.52217C1.24708 1.18286 1.53416 0.898425 1.8754 0.692582C2.21663 0.48674 2.60213 0.365456 2.99975 0.338841L3.16725 0.333008H14.8339Z" fill="#92949F"/>
</svg>
