<svg width="34" height="34" viewBox="0 0 34 34" fill="none" xmlns="http://www.w3.org/2000/svg">
<path d="M0.125 27.2362V32.9362C0.125 33.4612 0.5375 33.8737 1.0625 33.8737H6.7625C7.00625 33.8737 7.25 33.78 7.41875 33.5925L27.8937 13.1362L20.8625 6.10497L0.40625 26.5612C0.21875 26.7487 0.125 26.9737 0.125 27.2362ZM33.3312 7.69872C33.5051 7.52526 33.643 7.31922 33.7371 7.09239C33.8312 6.86557 33.8796 6.62241 33.8796 6.37685C33.8796 6.13128 33.8312 5.88813 33.7371 5.6613C33.643 5.43448 33.5051 5.22844 33.3312 5.05497L28.9438 0.667473C28.7703 0.493654 28.5642 0.355752 28.3374 0.261662C28.1106 0.167572 27.8674 0.119141 27.6219 0.119141C27.3763 0.119141 27.1332 0.167572 26.9063 0.261662C26.6795 0.355752 26.4735 0.493654 26.3 0.667473L22.8687 4.09872L29.9 11.13L33.3312 7.69872Z" fill="#FAFAFA"/>
</svg>
