<svg width="20" height="20" viewBox="0 0 20 20" fill="none" xmlns="http://www.w3.org/2000/svg">
<path d="M13.7971 10.7553L13.4179 11.1328C13.4179 11.1328 12.5154 12.0295 10.0529 9.58114C7.59039 7.13281 8.49289 6.23614 8.49289 6.23614L8.73122 5.99781C9.32039 5.41281 9.37622 4.47281 8.86205 3.78614L7.81205 2.38364C7.17539 1.53364 5.94622 1.42114 5.21705 2.14614L3.90872 3.44614C3.54789 3.80614 3.30622 4.27114 3.33539 4.78781C3.41039 6.11031 4.00872 8.95448 7.34539 12.2728C10.8846 15.7911 14.2054 15.9311 15.5629 15.8045C15.9929 15.7645 16.3662 15.5461 16.6671 15.2461L17.8504 14.0695C18.6504 13.2753 18.4254 11.9128 17.4021 11.357L15.8104 10.4911C15.1387 10.127 14.3221 10.2336 13.7971 10.7553Z" fill="#92949F"/>
</svg>
