<svg width="36" height="30" viewBox="0 0 36 30" fill="none" xmlns="http://www.w3.org/2000/svg">
<path d="M5.33314 16.9668V21.6501C5.33314 22.8668 5.9998 24.0001 7.06647 24.5835L15.3998 29.1335C16.3998 29.6835 17.5998 29.6835 18.5998 29.1335L26.9331 24.5835C27.9998 24.0001 28.6665 22.8668 28.6665 21.6501V16.9668L18.5998 22.4668C17.5998 23.0168 16.3998 23.0168 15.3998 22.4668L5.33314 16.9668ZM15.3998 0.866797L1.3498 8.53346C0.199805 9.1668 0.199805 10.8335 1.3498 11.4668L15.3998 19.1335C16.3998 19.6835 17.5998 19.6835 18.5998 19.1335L31.9998 11.8168V21.6668C31.9998 22.5835 32.7498 23.3335 33.6665 23.3335C34.5831 23.3335 35.3331 22.5835 35.3331 21.6668V10.9835C35.3331 10.3668 34.9998 9.8168 34.4665 9.5168L18.5998 0.866797C18.1074 0.604172 17.5579 0.466797 16.9998 0.466797C16.4417 0.466797 15.8922 0.604172 15.3998 0.866797Z" fill="#445844"/>
</svg>
