<svg width="78" height="96" viewBox="0 0 78 96" fill="none" xmlns="http://www.w3.org/2000/svg">
<path fill-rule="evenodd" clip-rule="evenodd" d="M37.7618 44.2856H40.238C40.8947 44.2856 41.5246 44.5465 41.9889 45.0109C42.4533 45.4753 42.7142 46.1051 42.7142 46.7618V49.238C42.7142 49.8947 42.4533 50.5246 41.9889 50.9889C41.5246 51.4533 40.8947 51.7142 40.238 51.7142H37.7618C37.1051 51.7142 36.4753 51.4533 36.0109 50.9889C35.5465 50.5246 35.2856 49.8947 35.2856 49.238V46.7618C35.2856 46.1051 35.5465 45.4753 36.0109 45.0109C36.4753 44.5465 37.1051 44.2856 37.7618 44.2856ZM37.7618 34.3809H40.238C40.8947 34.3809 41.5246 34.6417 41.9889 35.1061C42.4533 35.5705 42.7142 36.2003 42.7142 36.857V39.3332C42.7142 39.99 42.4533 40.6198 41.9889 41.0842C41.5246 41.5485 40.8947 41.8094 40.238 41.8094H37.7618C37.1051 41.8094 36.4753 41.5485 36.0109 41.0842C35.5465 40.6198 35.2856 39.99 35.2856 39.3332V36.857C35.2856 36.2003 35.5465 35.5705 36.0109 35.1061C36.4753 34.6417 37.1051 34.3809 37.7618 34.3809ZM47.6666 44.2856H50.1428C50.7995 44.2856 51.4293 44.5465 51.8937 45.0109C52.3581 45.4753 52.619 46.1051 52.619 46.7618V49.238C52.619 49.8947 52.3581 50.5246 51.8937 50.9889C51.4293 51.4533 50.7995 51.7142 50.1428 51.7142H47.6666C47.0098 51.7142 46.38 51.4533 45.9156 50.9889C45.4513 50.5246 45.1904 49.8947 45.1904 49.238V46.7618C45.1904 46.1051 45.4513 45.4753 45.9156 45.0109C46.38 44.5465 47.0098 44.2856 47.6666 44.2856ZM47.6666 34.3809H50.1428C50.7995 34.3809 51.4293 34.6417 51.8937 35.1061C52.3581 35.5705 52.619 36.2003 52.619 36.857V39.3332C52.619 39.99 52.3581 40.6198 51.8937 41.0842C51.4293 41.5485 50.7995 41.8094 50.1428 41.8094H47.6666C47.0098 41.8094 46.38 41.5485 45.9156 41.0842C45.4513 40.6198 45.1904 39.99 45.1904 39.3332V36.857C45.1904 36.2003 45.4513 35.5705 45.9156 35.1061C46.38 34.6417 47.0098 34.3809 47.6666 34.3809ZM47.6666 54.1904H50.1428C50.7995 54.1904 51.4293 54.4513 51.8937 54.9156C52.3581 55.38 52.619 56.0098 52.619 56.6666V59.1428C52.619 59.7995 52.3581 60.4293 51.8937 60.8937C51.4293 61.3581 50.7995 61.619 50.1428 61.619H47.6666C47.0098 61.619 46.38 61.3581 45.9156 60.8937C45.4513 60.4293 45.1904 59.7995 45.1904 59.1428V56.6666C45.1904 56.0098 45.4513 55.38 45.9156 54.9156C46.38 54.4513 47.0098 54.1904 47.6666 54.1904ZM37.7618 54.1904H40.238C40.8947 54.1904 41.5246 54.4513 41.9889 54.9156C42.4533 55.38 42.7142 56.0098 42.7142 56.6666V59.1428C42.7142 59.7995 42.4533 60.4293 41.9889 60.8937C41.5246 61.3581 40.8947 61.619 40.238 61.619H37.7618C37.1051 61.619 36.4753 61.3581 36.0109 60.8937C35.5465 60.4293 35.2856 59.7995 35.2856 59.1428V56.6666C35.2856 56.0098 35.5465 55.38 36.0109 54.9156C36.4753 54.4513 37.1051 54.1904 37.7618 54.1904ZM27.857 44.2856H30.3332C30.99 44.2856 31.6198 44.5465 32.0842 45.0109C32.5485 45.4753 32.8094 46.1051 32.8094 46.7618V49.238C32.8094 49.8947 32.5485 50.5246 32.0842 50.9889C31.6198 51.4533 30.99 51.7142 30.3332 51.7142H27.857C27.2003 51.7142 26.5705 51.4533 26.1061 50.9889C25.6417 50.5246 25.3809 49.8947 25.3809 49.238V46.7618C25.3809 46.1051 25.6417 45.4753 26.1061 45.0109C26.5705 44.5465 27.2003 44.2856 27.857 44.2856ZM27.857 34.3809H30.3332C30.99 34.3809 31.6198 34.6417 32.0842 35.1061C32.5485 35.5705 32.8094 36.2003 32.8094 36.857V39.3332C32.8094 39.99 32.5485 40.6198 32.0842 41.0842C31.6198 41.5485 30.99 41.8094 30.3332 41.8094H27.857C27.2003 41.8094 26.5705 41.5485 26.1061 41.0842C25.6417 40.6198 25.3809 39.99 25.3809 39.3332V36.857C25.3809 36.2003 25.6417 35.5705 26.1061 35.1061C26.5705 34.6417 27.2003 34.3809 27.857 34.3809ZM27.857 54.1904H30.3332C30.99 54.1904 31.6198 54.4513 32.0842 54.9156C32.5485 55.38 32.8094 56.0098 32.8094 56.6666V59.1428C32.8094 59.7995 32.5485 60.4293 32.0842 60.8937C31.6198 61.3581 30.99 61.619 30.3332 61.619H27.857C27.2003 61.619 26.5705 61.3581 26.1061 60.8937C25.6417 60.4293 25.3809 59.7995 25.3809 59.1428V56.6666C25.3809 56.0098 25.6417 55.38 26.1061 54.9156C26.5705 54.4513 27.2003 54.1904 27.857 54.1904Z" fill="#3D90E3"/>
</svg>
