<svg width="20" height="21" viewBox="0 0 20 21" fill="none" xmlns="http://www.w3.org/2000/svg">
<g clip-path="url(#clip0_174_832)">
<path fill-rule="evenodd" clip-rule="evenodd" d="M7.2129 0.660847C5.28005 1.22388 3.56178 2.3564 2.28225 3.91065C1.00271 5.46489 0.22133 7.36871 0.0400391 9.3737H4.61147C4.87794 6.32263 5.76256 3.3577 7.21147 0.659419L7.2129 0.660847ZM4.61147 11.1594H0.0400391C0.220953 13.1645 1.002 15.0685 2.28128 16.623C3.56057 18.1775 5.27868 19.3103 7.21147 19.8737C5.76256 17.1754 4.87794 14.2105 4.61147 11.1594ZM9.5029 20.2551C7.77087 17.5081 6.70896 14.3924 6.4029 11.1594H13.5958C13.2897 14.3924 12.2278 17.5081 10.4958 20.2551C10.165 20.2716 9.83364 20.2716 9.5029 20.2551ZM12.7886 19.8723C14.7212 19.309 16.4392 18.1764 17.7184 16.6221C18.9977 15.0679 19.7789 13.1642 19.96 11.1594H15.3886C15.1221 14.2105 14.2375 17.1754 12.7886 19.8737V19.8723ZM15.3886 9.3737H19.96C19.7791 7.36863 18.9981 5.46464 17.7188 3.91013C16.4395 2.35562 14.7214 1.22279 12.7886 0.659419C14.2375 3.3577 15.1221 6.32263 15.3886 9.3737ZM9.5029 0.27799C9.83412 0.261503 10.166 0.261503 10.4972 0.27799C12.2287 3.02511 13.2901 6.14084 13.5958 9.3737H6.40433C6.71432 6.12085 7.77861 3.00228 9.5029 0.27799Z" fill="#222222"/>
</g>
<defs>
<clipPath id="clip0_174_832">
<rect width="20" height="20" fill="white" transform="translate(0 0.266602)"/>
</clipPath>
</defs>
</svg>
